<?xml version="1.0"?>
<svg xmlns="http://www.w3.org/2000/svg" viewBox="0 0 50 50" width="50px" height="50px">
    <path style="line-height:normal;text-indent:0;text-align:start;text-decoration-line:none;text-decoration-style:solid;text-decoration-color:#000;text-transform:none;block-progression:tb;isolation:auto;mix-blend-mode:normal" d="M 8 4 C 5.8026661 4 4 5.8026661 4 8 L 4 42 C 4 44.197334 5.8026661 46 8 46 L 34.914062 46 L 35.207031 45.707031 L 46 34.914062 L 46 8 C 46 5.8026661 44.197334 4 42 4 L 8 4 z M 8 6 L 42 6 C 43.116666 6 44 6.8833339 44 8 L 44 33 L 37 33 C 34.802666 33 33 34.802666 33 37 L 33 44 L 8 44 C 6.8833339 44 6 43.116666 6 42 L 6 8 C 6 6.8833339 6.8833339 6 8 6 z M 25 11 C 20.335659 11 16.480667 14.56852 16.041016 19.126953 L 16.041016 19.128906 C 16.014297 19.413854 16 19.704921 16 20 C 16 23.507161 18.055575 26.492023 20.996094 27.974609 C 20.998476 30.102707 21 35 21 35 L 21 36 L 23 36 L 23 38 L 27 38 L 27 36 L 29 36 L 29 35 C 29 35 29.001506 30.102707 29.003906 27.974609 C 31.944431 26.492023 34 23.507161 34 20 C 34 15.041484 29.958516 11 25 11 z M 25 13 C 28.877484 13 32 16.122516 32 20 C 32 22.945392 30.188015 25.452698 27.626953 26.490234 L 27.003906 26.742188 L 27.003906 27.416016 C 27.002882 28.015261 27.002568 28.98243 27.001953 30 L 22.998047 30 C 22.997433 28.98243 22.997114 28.015261 22.996094 27.416016 L 22.996094 26.742188 L 22.373047 26.490234 C 19.811979 25.452698 18 22.945392 18 20 C 18 19.771731 18.012043 19.544721 18.033203 19.318359 C 18.375555 15.768792 21.352341 13 25 13 z M 22.998047 32 L 27.001953 32 C 27.001713 32.714802 27.000013 33.640196 27 34 L 23 34 C 22.999987 33.640196 22.998288 32.714802 22.998047 32 z M 37 35 L 43.085938 35 L 35 43.085938 L 35 37 C 35 35.883334 35.883334 35 37 35 z" font-weight="400" font-family="sans-serif" white-space="normal" overflow="visible"/>
</svg>
